<?xml version="1.0" encoding="UTF-8" standalone="no"?>
<svg
   xmlns:dc="http://purl.org/dc/elements/1.1/"
   xmlns:cc="http://creativecommons.org/ns#"
   xmlns:rdf="http://www.w3.org/1999/02/22-rdf-syntax-ns#"
   xmlns:svg="http://www.w3.org/2000/svg"
   xmlns="http://www.w3.org/2000/svg"
   xmlns:sodipodi="http://sodipodi.sourceforge.net/DTD/sodipodi-0.dtd"
   xmlns:inkscape="http://www.inkscape.org/namespaces/inkscape"
   width="700"
   height="700"
   version="1.1"
   id="svg6"
   sodipodi:docname="signal-logo.svg"
   inkscape:version="0.92.0 r15299"
   inkscape:export-filename="C:\Users\suitedoalex\sites\signal-logo-0.png"
   inkscape:export-xdpi="561.73712"
   inkscape:export-ydpi="561.73712">
  <metadata
     id="metadata12">
    <rdf:RDF>
      <cc:Work
         rdf:about="">
        <dc:format>image/svg+xml</dc:format>
        <dc:type
           rdf:resource="http://purl.org/dc/dcmitype/StillImage" />
        <dc:title></dc:title>
      </cc:Work>
    </rdf:RDF>
  </metadata>
  <defs
     id="defs10" />
  <sodipodi:namedview
     pagecolor="#ffffff"
     bordercolor="#666666"
     borderopacity="1"
     objecttolerance="10"
     gridtolerance="10"
     guidetolerance="10"
     inkscape:pageopacity="0"
     inkscape:pageshadow="2"
     inkscape:window-width="1920"
     inkscape:window-height="1017"
     id="namedview8"
     showgrid="false"
     inkscape:zoom="0.56623785"
     inkscape:cx="193.48917"
     inkscape:cy="179.97925"
     inkscape:window-x="-8"
     inkscape:window-y="-8"
     inkscape:window-maximized="1"
     inkscape:current-layer="svg6" />
  <path
     d="m 101.9239,732.51933 2.29941,9.29432 A 92.37184,92.37184 0 0 0 78.544316,752.43391 L 73.624839,744.2263 A 101.82522,101.82522 0 0 1 101.9239,732.51933 Z m 49.05986,0 -2.29941,9.29432 a 92.37184,92.37184 0 0 1 25.67899,10.62026 l 4.95128,-8.20761 A 101.82522,101.82522 0 0 0 150.98376,732.51933 Z M 38.936569,778.9133 a 101.82522,101.82522 0 0 0 -11.706976,28.29907 l 9.295593,2.2994 a 92.37184,92.37184 0 0 1 10.620253,-25.67899 z m -5.110351,52.82899 a 92.467277,92.467277 0 0 1 1.038361,-13.87783 l -9.471199,-1.43798 a 102.57599,102.57599 0 0 0 0,30.63161 l 9.471199,-1.43798 a 92.467277,92.467277 0 0 1 -1.038361,-13.87782 z m 145.459142,87.51594 -4.91947,-8.2076 a 92.37184,92.37184 0 0 1 -25.64846,10.61906 l 2.30068,9.29424 a 101.82522,101.82522 0 0 0 28.26725,-11.7057 z m 39.79735,-87.51594 a 92.467277,92.467277 0 0 1 -1.03836,13.87782 l 9.46993,1.43798 a 102.57599,102.57599 0 0 0 0,-30.63161 l -9.46993,1.43798 a 92.467277,92.467277 0 0 1 1.03836,13.87783 z m 6.59535,24.52988 -9.29432,-2.29933 a 92.37184,92.37184 0 0 1 -10.62026,25.67902 l 8.20761,4.95118 a 101.82522,101.82522 0 0 0 11.70697,-28.33087 z m -85.3451,67.07459 a 93.281675,93.281675 0 0 1 -27.75571,0 l -1.43793,9.47003 a 102.57599,102.57599 0 0 0 30.63155,0 z m 60.68665,-36.65164 a 92.962279,92.962279 0 0 1 -19.62699,19.61172 l 5.68551,7.71384 a 102.36858,102.36858 0 0 0 21.65536,-21.59167 z M 181.39262,757.18033 a 92.962279,92.962279 0 0 1 19.62699,19.627 l 7.71388,-5.74915 a 102.36858,102.36858 0 0 0 -21.59173,-21.59173 z m -129.502038,19.627 a 92.962279,92.962279 0 0 1 19.626999,-19.627 l -5.749137,-7.71388 a 102.36858,102.36858 0 0 0 -21.590459,21.59173 z m 162.077958,2.10852 -8.20761,4.9182 a 92.37184,92.37184 0 0 1 10.61899,25.64846 l 9.2956,-2.29941 A 101.82522,101.82522 0 0 0 213.96854,778.91585 Z M 112.5747,740.15559 a 93.281675,93.281675 0 0 1 27.75571,0 l 1.43792,-9.46993 a 102.57599,102.57599 0 0 0 -30.63028,0 z m -55.768461,176.40623 -19.787327,4.61671 4.615351,-19.78739 -9.327412,-2.18874 -4.614066,19.78738 a 9.5819034,9.5819034 0 0 0 11.514816,11.51483 l 19.770797,-4.53512 z m -22.502836,-25.90161 9.327401,2.17083 3.193968,-13.71749 a 92.228048,92.228048 0 0 1 -10.30086,-25.13824 l -9.295592,2.29946 a 101.4422,101.4422 0 0 0 9.421565,24.29067 z m 44.716825,20.76074 -13.717522,3.19405 2.170874,9.32738 10.093457,-2.34909 a 101.4422,101.4422 0 0 0 24.290703,9.42287 l 2.29939,-9.29436 A 92.228048,92.228048 0 0 1 79.083845,911.3574 Z M 126.45129,748.70677 A 83.044436,83.044436 0 0 0 56.183993,875.94119 l -7.986199,34.06476 34.064752,-7.98618 A 83.044436,83.044436 0 1 0 126.45255,748.70932 Z"
     id="path2"
     inkscape:connector-curvature="0"
     style="fill:#3a76f0;stroke-width:1.27249718"
     inkscape:export-filename="C:\Users\suitedoalex\sites\signal-logo-4.png"
     inkscape:export-xdpi="103.14454"
     inkscape:export-ydpi="103.14454" />
  <path
     d="m 328.03266,809.83499 q -0.58917,-5.93875 -5.10399,-9.22688 -4.46647,-3.28813 -12.07346,-3.28813 -7.80422,0 -11.97547,3.19015 -4.17252,3.19014 -4.17252,8.04854 -0.098,5.39921 4.61408,8.19615 4.76041,2.74864 11.28705,4.27044 l 9.03219,2.15951 q 8.73569,1.96345 15.50919,5.6931 6.82058,3.72978 10.69915,9.62012 3.92566,5.84071 3.92566,14.23281 -0.0483,13.79141 -10.35559,21.98757 -10.25632,8.14653 -28.66299,8.14653 -18.30615,0 -29.20254,-8.34377 -10.89512,-8.34247 -11.28705,-24.63812 h 20.56356 q 0.53954,7.55858 5.93875,11.38632 5.44755,3.77929 13.74296,3.77929 8.0969,0 12.90694,-3.43574 4.85839,-3.43574 4.90801,-8.93289 -0.0483,-5.1028 -4.46645,-7.85132 -4.41812,-2.74863 -12.61299,-4.71208 l -10.94475,-2.74864 q -12.71225,-3.04244 -20.07365,-9.66833 -7.36267,-6.6259 -7.31304,-17.7183 -0.0496,-9.12889 4.8584,-15.95075 4.95765,-6.87149 13.59536,-10.6508 8.63898,-3.82767 19.63208,-3.82767 11.19034,0 19.53411,3.82767 8.39339,3.82895 13.05581,10.6508 4.66243,6.82186 4.81005,15.80315 z m 35.58028,71.60725 v -75.38657 h 20.90841 v 75.38657 z m 10.5032,-85.10463 q -4.61408,0 -7.95056,-3.09217 -3.33777,-3.14052 -3.33777,-7.509 0,-4.36849 3.33777,-7.46065 3.33648,-3.09218 7.95056,-3.09218 4.66242,0 8.00019,3.09218 3.33648,3.09216 3.33648,7.46065 0,4.36848 -3.33648,7.509 -3.33777,3.09217 -8.00019,3.09217 z m 61.06204,114.94599 q -15.21524,0 -23.90131,-6.08641 -8.68734,-6.03677 -10.55281,-14.92003 l 19.33686,-2.60103 q 1.27631,3.43574 4.95764,5.98843 3.72969,2.60092 10.6508,2.60092 6.8206,0 11.23871,-3.33765 4.46646,-3.28813 4.46646,-11.04277 v -13.79129 h -0.88312 q -2.06144,4.66233 -7.26468,8.49007 -5.20197,3.77929 -14.23288,3.77929 -8.49011,0 -15.45957,-3.97523 -6.91984,-3.97535 -11.04273,-12.12188 -4.07327,-8.14782 -4.07327,-20.66276 0,-12.85861 4.17125,-21.39833 4.22088,-8.541 11.14072,-12.81022 6.96946,-4.32014 15.21524,-4.32014 6.33195,0 10.60118,2.1607 4.27049,2.1098 6.92111,5.25033 2.65061,3.14177 4.02363,6.23396 h 0.78641 v -12.66262 h 20.76079 v 76.12074 q 0,9.62011 -4.76168,16.0997 -4.71079,6.47829 -13.00492,9.71809 -8.29541,3.28813 -19.09383,3.28813 z m 0.44156,-46.62557 q 7.55864,0 11.68152,-5.59525 4.17125,-5.59513 4.17125,-15.55879 0,-9.91403 -4.12289,-15.85283 -4.12289,-5.93868 -11.72988,-5.93868 -7.75459,0 -11.82785,6.08629 -4.02492,6.0851 -4.02492,15.70522 0,9.76642 4.07454,15.45952 4.07199,5.69322 11.77823,5.69322 z m 74.01224,-26.79763 v 43.58314 h -20.9084 v -75.3866 h 19.92603 v 13.30009 h 0.88311 q 2.55264,-6.57622 8.39339,-10.40515 5.88912,-3.87731 14.28251,-3.87731 11.77824,0 18.89531,7.607 7.11581,7.55862 7.11581,20.76208 v 47.99859 h -20.90712 v -44.27023 q 0.0483,-6.91982 -3.53501,-10.79708 -3.58207,-3.92571 -9.8644,-3.92571 -6.33194,0 -10.30722,4.07202 -3.92566,4.02616 -3.97528,11.33798 z m 86.51708,45.00579 q -10.79713,0 -17.91421,-5.64488 -7.11708,-5.64347 -7.11708,-16.83384 0,-8.44174 3.97655,-13.2518 3.97528,-4.81006 10.40394,-7.01779 6.47955,-2.25748 13.93893,-2.94458 9.81605,-0.98231 14.03692,-2.06142 4.22087,-1.0804 4.22087,-4.71208 v -0.29392 q 0,-4.66245 -2.94456,-7.21502 -2.89492,-2.5527 -8.24578,-2.5527 -5.64352,0 -8.98128,2.45461 -3.33648,2.45342 -4.41684,6.23271 l -19.33687,-1.57026 q 2.15943,-10.30722 10.69916,-16.34392 8.58936,-6.03673 22.13508,-6.03673 8.39339,0 15.70517,2.65062 7.31304,2.6506 11.7795,8.29407 4.51482,5.59525 4.51482,14.57648 v 50.8465 H 618.77533 V 870.9886 h -0.58916 q -2.7486,5.25169 -8.24578,8.58946 -5.44629,3.28813 -13.79006,3.28813 z m 5.9871,-14.42887 q 6.87149,0 11.28833,-3.97535 4.41811,-4.02487 4.41811,-9.96367 v -8.0001 q -1.22669,0.83471 -3.82895,1.47347 -2.55136,0.63759 -5.49719,1.12874 -2.89493,0.44153 -5.20197,0.7852 -5.49718,0.78507 -8.88202,3.09207 -3.33904,2.30711 -3.33904,6.72387 0,4.3189 3.09217,6.52792 3.14179,2.20785 7.95183,2.20785 z m 73.62032,-87.50965 V 881.44224 H 654.84809 V 780.92767 Z"
     id="path4"
     inkscape:connector-curvature="0"
     style="fill:#1b1b1b;stroke-width:1.27249718"
     inkscape:export-filename="C:\Users\suitedoalex\sites\signal-logo-4.png"
     inkscape:export-xdpi="103.14454"
     inkscape:export-ydpi="103.14454" />
  <path
     d="m 294.22708,124.37944 5.22809,21.13221 a 210.023,210.023 0 0 0 -58.38554,24.14696 l -11.18526,-18.66138 a 231.51687,231.51687 0 0 1 64.34271,-26.61779 z m 111.54588,0 -5.22809,21.13221 a 210.023,210.023 0 0 1 58.38553,24.14696 l 11.25759,-18.66138 A 231.51687,231.51687 0 0 0 405.77296,124.37944 Z M 151.0147,229.86398 a 231.51687,231.51687 0 0 0 -26.61779,64.34273 l 21.13509,5.22806 a 210.023,210.023 0 0 1 24.14695,-58.38552 z m -11.61925,120.11566 a 210.24,210.24 0 0 1 2.36088,-31.55363 l -21.53437,-3.26937 a 233.22388,233.22388 0 0 0 0,69.64601 l 21.53437,-3.26937 a 210.24,210.24 0 0 1 -2.36088,-31.55364 z m 330.72601,198.98242 -11.18527,-18.66139 a 210.023,210.023 0 0 1 -58.3161,24.14408 l 5.23097,21.13221 a 231.51687,231.51687 0 0 0 64.2704,-26.6149 z m 90.486,-198.98242 a 210.24,210.24 0 0 1 -2.3609,31.55364 l 21.53149,3.26937 a 233.22388,233.22388 0 0 0 0,-69.64601 l -21.53149,3.26937 a 210.24,210.24 0 0 1 2.3609,31.55363 z m 14.99566,55.77294 -21.13221,-5.22806 a 210.023,210.023 0 0 1 -24.14698,58.38553 l 18.6614,11.25757 a 231.51687,231.51687 0 0 0 26.61779,-64.41504 z M 381.55657,558.25803 a 212.09167,212.09167 0 0 1 -63.1073,0 l -3.26937,21.53147 a 233.22388,233.22388 0 0 0 69.64601,0 z m 137.98137,-83.33394 a 211.36547,211.36547 0 0 1 -44.62528,44.5906 l 12.92696,17.53881 a 232.75228,232.75228 0 0 0 49.23715,-49.09245 z m -44.62528,-294.4737 a 211.36547,211.36547 0 0 1 44.62528,44.62531 l 17.53882,-13.07167 A 232.75228,232.75228 0 0 0 487.9843,162.91158 Z M 180.46784,225.0757 a 211.36547,211.36547 0 0 1 44.62532,-44.62531 l -13.07164,-17.53881 a 232.75228,232.75228 0 0 0 -49.08959,49.09245 z m 368.51168,4.79407 -18.66139,11.18237 a 210.023,210.023 0 0 1 24.14409,58.31611 l 21.13509,-5.22809 A 231.51687,231.51687 0 0 0 548.97952,229.86977 Z M 318.44347,141.74176 a 212.09167,212.09167 0 0 1 63.1073,0 l 3.26937,-21.53148 a 233.22388,233.22388 0 0 0 -69.64314,0 z m -126.79904,401.08953 -44.98985,10.49665 10.49378,-44.98984 -21.20746,-4.97637 -10.49084,44.98985 a 21.786079,21.786079 0 0 0 26.18088,26.18092 l 44.95228,-10.3115 z m -51.16403,-58.89186 21.20743,4.93588 7.26202,-31.18912 a 209.69607,209.69607 0 0 1 -23.42074,-57.15591 l -21.13511,5.22809 a 230.646,230.646 0 0 0 21.42152,55.22901 z m 101.6713,47.20319 -31.18911,7.26202 4.93585,21.20743 22.94918,-5.34091 a 230.646,230.646 0 0 0 55.22902,21.42442 l 5.22806,-21.13221 A 209.69607,209.69607 0 0 1 242.29634,530.99795 Z M 349.99424,161.18432 A 188.81557,188.81557 0 0 0 190.22966,450.47336 l -18.158,77.45198 77.452,-18.15797 A 188.81557,188.81557 0 1 0 349.99711,161.19011 Z"
     id="path2-7"
     inkscape:connector-curvature="0"
     style="fill:#3a76f0;stroke-width:2.89323759"
     inkscape:export-filename="C:\Users\suitedoalex\sites\signal-logo-5.png"
     inkscape:export-xdpi="144.58302"
     inkscape:export-ydpi="144.58302" />
</svg>
